<svg width="28" height="28" viewBox="0 0 28 28" fill="none" xmlns="http://www.w3.org/2000/svg">
    <path fill-rule="evenodd" clip-rule="evenodd" d="M7.261 7.172c0-1.928 1.547-3.522 3.479-3.522.883 0 1.678.343 2.282.871l.008.006.083.07c.065.059.148.139.244.244.187.206.418.506.645.916.225-.41.455-.708.64-.914a3.276 3.276 0 0 1 .326-.314l.009-.007a3.464 3.464 0 0 1 2.283-.872c1.932 0 3.478 1.594 3.478 3.522 0 .642-.171 1.247-.472 1.769h3.067a.9.9 0 0 1 .9.9v4.742a.9.9 0 0 1-.9.9h-.28v8.55a.9.9 0 0 1-.9.9H5.86a.9.9 0 0 1-.9-.9v-8.55h-.292a.9.9 0 0 1-.9-.9V9.841a.9.9 0 0 1 .9-.9h3.066a3.537 3.537 0 0 1-.472-1.77zm4.64-1.242a.863.863 0 0 1-.052-.044 1.667 1.667 0 0 0-1.11-.436c-.909 0-1.678.76-1.678 1.722s.769 1.722 1.679 1.722h2.324c-.103-1.069-.379-1.791-.628-2.249a3.057 3.057 0 0 0-.411-.593 1.494 1.494 0 0 0-.11-.11l-.014-.012zm2.982 17.203h6.37v-7.65h-6.37v7.65zm-1.8-7.65v7.65H6.757v-7.65h6.324zm9.35-1.8H5.567v-2.942h16.866v2.942zm-6.282-7.797c.31-.275.697-.436 1.109-.436.91 0 1.678.76 1.678 1.722s-.768 1.722-1.678 1.722h-2.322c.106-1.069.382-1.792.63-2.25a3.08 3.08 0 0 1 .41-.595c.05-.055.089-.091.109-.109l.014-.012a.898.898 0 0 0 .05-.042z" fill="#000"/>
</svg>
